<?xml version="1.0" encoding="utf-8"?><svg xmlns="http://www.w3.org/2000/svg" xmlns:xlink="http://www.w3.org/1999/xlink"><symbol viewBox="0 0 64 64" id="operating" xmlns="http://www.w3.org/2000/svg"><path d="M59.83 55.161A4.2 4.2 0 0060 54c0-.449-.072-.892-.216-1.323A6.706 6.706 0 0062 47.7c0-3.694-3.006-6.7-6.7-6.7h-2.6a6.708 6.708 0 00-6.7 6.7c0 1.908.816 3.715 2.216 4.977A4.158 4.158 0 0048 54c0 .4.063.788.17 1.161A9.013 9.013 0 0045.061 61h-4.119a9.017 9.017 0 00-4.722-6.945A5.996 5.996 0 0039 49v-6c0-1.103-.897-2-2-2h-7c-2.757 0-5 2.243-5 5v3a5.994 5.994 0 002.781 5.055A9.013 9.013 0 0023.059 61h-4.116a8.899 8.899 0 00-2.83-5.599A6.954 6.954 0 0017 52v-5c0-3.309-2.691-6-6-6H9c-3.309 0-6 2.691-6 6v5c0 1.234.324 2.393.887 3.401A8.918 8.918 0 001 62v1h62v-1a9.014 9.014 0 00-3.17-6.839zM48 47.7c0-2.592 2.108-4.7 4.7-4.7h2.6c2.592 0 4.7 2.108 4.7 4.7a4.703 4.703 0 01-2.012 3.854l-.742.518.44.79c.209.371.314.754.314 1.138 0 1.654-1.794 3-4 3s-4-1.346-4-3c0-.384.105-.767.313-1.139l.44-.79-.742-.518A4.701 4.701 0 0148 47.7zM27 46c0-1.654 1.346-3 3-3h7v6c0 1.474-.81 2.75-2 3.444V49h-2v4h-2v-4h-2v3.444c-1.19-.694-2-1.97-2-3.444zm5 9c3.519 0 6.432 2.614 6.92 6H25.08c.488-3.386 3.401-6 6.92-6zM5 47c0-2.206 1.794-4 4-4h2c2.206 0 4 1.794 4 4v5c0 1.627-.793 3.061-2 3.974V53h-2v3.899a4.995 4.995 0 01-2 0V53H7v2.974C5.793 55.061 5 53.627 5 52zm.11 10a6.976 6.976 0 009.782-.002A6.906 6.906 0 0116.922 61H3.07a6.911 6.911 0 012.04-4zm41.97 4a7.013 7.013 0 012.086-4.051C50.259 58.19 52.016 59 54 59s3.741-.81 4.834-2.05A7.022 7.022 0 0160.928 61zM61 18H47V3c0-1.103-.897-2-2-2H19c-1.103 0-2 .897-2 2v15H3c-1.103 0-2 .897-2 2v19h62V20c0-1.103-.897-2-2-2zM45 3v2H19V3zM9 37H7v-9h2zm8 0h-2v-9h2zm7.854-10.768c.057.066.103.138.165.2l2.259 2.142c.271.81.733 1.526 1.348 2.092A9.172 9.172 0 0023.174 37H23v-8a3 3 0 011.854-2.768zM33 17h-2v-6h2zm-2 2h2c1.075 0 2.141.355 3 1 1.252.939 2 2.435 2 4 0 .378-.147.732-.395.981l-.675.64a2.977 2.977 0 00-1.588-2.068L32 21.882l-3.342 1.671a2.976 2.976 0 00-1.588 2.068L26.415 25A1.403 1.403 0 0126 24c0-1.565.748-3.061 2-4 .859-.645 1.925-1 3-1zm10 10v8h-.171c-.684-2.905-2.771-5.245-5.455-6.334a4.98 4.98 0 001.347-2.091L39 26.414c.056-.056.097-.122.148-.181A3 3 0 0141 29zm-12-2v-.764c0-.381.212-.724.553-.895L32 24.118l2.447 1.224a.995.995 0 01.553.894V27c0 1.654-1.346 3-3 3s-3-1.346-3-3zm4 5.079a7.01 7.01 0 012.095.644L33 35.238zm-2 3.159l-2.095-2.514A7.039 7.039 0 0131 32.08zm-3.753-1.379L29.865 37h-4.618a7.06 7.06 0 012-3.141zm9.506 0a7.088 7.088 0 012 3.141h-4.618zM49 37h-2v-9h2zm8 0h-2v-9h2zm2 0V26h-6v11h-2V26h-6v11h-2v-8a4.993 4.993 0 00-3.04-4.587c.016-.137.04-.273.04-.413a7.023 7.023 0 00-1.27-4H43V9h-6v9.274a7.02 7.02 0 00-2-.966V9h-6v8.309a6.994 6.994 0 00-2 .966V9h-6v11h4.27A7.015 7.015 0 0024 24c0 .14.024.276.04.412A4.995 4.995 0 0021 29v8h-2V26h-6v11h-2V26H5v11H3V24h16v-2H3v-2h16V7h26v13h16v2H45v2h16v13zM39 18v-7h2v7zm-14-7v7h-2v-7z"/></symbol><symbol viewBox="0 -2 496 496" id="outsourcing" xmlns="http://www.w3.org/2000/svg"><path d="M466.992 428.984L440 421.274v-4.075c14.488-10.137 24-26.91 24-45.887v-16c0-30.87-25.121-56-56-56s-56 25.13-56 56v16c0 18.977 9.512 35.758 24 45.887v4.074l-26.992 7.72c-8.602 2.456-15.887 7.702-21.008 14.558-5.121-6.856-12.406-12.102-21.008-14.567L280 421.274v-4.075c14.488-10.137 24-26.91 24-45.887v-16c0-30.87-25.121-56-56-56s-56 25.13-56 56v16c0 18.977 9.512 35.758 24 45.887v4.074l-26.992 7.72c-8.602 2.456-15.887 7.702-21.008 14.558-5.121-6.856-12.406-12.102-21.008-14.567L120 421.274v-4.075c14.488-10.137 24-26.91 24-45.887v-16c0-30.87-25.121-56-56-56s-56 25.13-56 56v16c0 18.977 9.512 35.758 24 45.887v4.074l-26.992 7.72C11.93 433.87 0 449.694 0 467.456v23.856h496v-23.856c0-17.762-11.93-33.586-29.008-38.473zM392 424.954c5.07 1.519 10.441 2.358 16 2.358s10.93-.84 16-2.359v2.36c0 8.824-7.176 16-16 16s-16-7.176-16-16zm-24-53.642v-16c0-22.054 17.945-40 40-40s40 17.946 40 40v16c0 22.055-17.945 40-40 40s-40-17.945-40-40zm-136 53.641c5.07 1.52 10.441 2.36 16 2.36s10.93-.84 16-2.36v2.36c0 8.824-7.176 16-16 16s-16-7.176-16-16zm-24-53.64v-16c0-22.055 17.945-40 40-40s40 17.945 40 40v16c0 22.054-17.945 40-40 40s-40-17.946-40-40zm-136 53.64c5.07 1.52 10.441 2.36 16 2.36s10.93-.84 16-2.36v2.36c0 8.824-7.176 16-16 16s-16-7.176-16-16zm-24-53.64v-16c0-22.055 17.945-40 40-40s40 17.945 40 40v16c0 22.054-17.945 40-40 40s-40-17.946-40-40zm112 104H16v-7.856c0-10.656 7.16-20.152 17.406-23.082l24.387-6.969c4.246 12.692 16.11 21.906 30.207 21.906s25.96-9.222 30.207-21.906l24.387 6.961C152.84 447.305 160 456.801 160 467.457zm160 0H176v-7.856c0-10.656 7.16-20.152 17.406-23.082l24.387-6.969c4.246 12.692 16.11 21.906 30.207 21.906s25.96-9.222 30.207-21.906l24.387 6.961C312.84 447.305 320 456.801 320 467.457zm160 0H336v-7.856c0-10.656 7.16-20.152 17.406-23.082l24.387-6.969c4.246 12.692 16.11 21.906 30.207 21.906s25.96-9.222 30.207-21.906l24.387 6.961C472.84 447.305 480 456.801 480 467.457zm-232-192c57.344 0 104-46.657 104-104s-46.656-104-104-104-104 46.656-104 104 46.656 104 104 104zm75.574-59.153l-4.965-2.488C309.602 217.16 304 208.113 304 197.734c0-5.23 1.535-10.293 4.441-14.656a26.35 26.35 0 0121.985-11.766h5.176c.23 2.641.398 5.297.398 8 0 16.391-4.586 31.688-12.426 44.848zm-7.742-100.847h-5.281c-16.864 0-31.504 12-34.817 28.535-1.328 6.64-7.207 11.464-13.98 11.464-5.434 0-10.32-3.023-12.754-7.878l-2.687-5.387c-5.778-11.559-17.391-18.734-30.313-18.734-6.824 0-12.953-3.793-16-9.887l-5.8-11.594c14.898-11.559 33.527-18.52 53.8-18.52 27.266 0 51.672 12.473 67.832 32zm-133.8-2.047l3.655 7.308c5.778 11.563 17.391 18.738 30.313 18.738 6.824 0 12.953 3.793 16 9.887l2.687 5.387c5.16 10.316 15.528 16.726 27.067 16.726 14.367 0 26.848-10.222 29.66-24.32 1.824-9.09 9.867-15.68 19.129-15.68h15.738a87.428 87.428 0 016.305 16h-2.172a42.33 42.33 0 00-35.293 18.887c-4.656 6.992-7.121 15.137-7.121 23.84 0 16.168 8.984 30.703 23.45 37.945l2.59 1.297c-6.817 7.758-14.919 14.367-24.056 19.352l-12.672-16.899c-5.824-7.78-15.113-12.422-24.832-12.422h-2.488a15.027 15.027 0 01-14.601-11.402l-.567-2.262c-2.586-10.351-10.168-18.543-20.297-21.921a14.989 14.989 0 01-9.84-10.63l-.566-2.265a30.99 30.99 0 00-30.113-23.52h-10.602c3.633-12.777 10.074-24.343 18.625-34.046zm-21.626 50.046h13.602a15.028 15.028 0 0114.601 11.399l.567 2.266c2.586 10.351 10.168 18.543 20.297 21.918a15.002 15.002 0 019.84 10.632l.566 2.266A30.995 30.995 0 00250 243.305h2.488c4.711 0 9.207 2.246 12.032 6.015l10.32 13.77a87.43 87.43 0 01-26.84 4.223c-48.52 0-88-39.481-88-88 0-2.704.168-5.36.406-8zm79.594-112V30.625l-10.344 10.344-11.312-11.313L248 0l29.656 29.656-11.312 11.313L256 30.625v28.688zm-187.313 120l29.657-29.656 11.312 11.313-10.344 10.344H128v16H83.312l10.344 10.343-11.312 11.313zm349.657 18.344l10.344-10.344H368v-16h44.688l-10.344-10.343 11.312-11.313 29.656 29.656-29.656 29.657zM360 91.312V78.626L341.656 96.97l-11.312-11.313 18.344-18.344H336v-16h40v40zm-200-24h-12.688l18.344 18.344-11.312 11.313L136 78.625v12.688h-16v-40h40zm0 0"/></symbol><symbol viewBox="0 0 64 64" id="structure" xmlns="http://www.w3.org/2000/svg"><path d="M61 45h2V23H41v10h-6v-6h-6v-6h-6V1H1v22h2v18H1v22h60zM49.184 33h5.631c-.414 1.161-1.514 2-2.816 2s-2.401-.839-2.815-2zm0-2c.414-1.161 1.514-2 2.816-2s2.402.839 2.816 2zM52 38.586l-1.371-1.371c.439-.126.892-.215 1.371-.215s.932.089 1.371.215zm-3.213-.385L51 40.414V43h-4v-1c0-1.528.704-2.881 1.787-3.799zM53 40.414l2.213-2.213C56.296 39.119 57 40.472 57 42v1h-4zM43 25h18v18h-2v-1a7.002 7.002 0 00-3.779-6.208C56.3 34.874 57 33.524 57 32c0-2.757-2.243-5-5-5s-5 2.243-5 5c0 1.524.7 2.874 1.779 3.792A7.002 7.002 0 0045 42v1h-2zM3 3h18v18h-2v-1a7.002 7.002 0 00-3.779-6.208C16.3 12.874 17 11.524 17 10c0-2.757-2.243-5-5-5s-5 2.243-5 5c0 1.524.7 2.874 1.779 3.792A7.002 7.002 0 005 20v1H3zm6.184 8h5.631c-.414 1.161-1.514 2-2.816 2s-2.401-.839-2.815-2zm0-2C9.598 7.839 10.698 7 12 7s2.402.839 2.816 2zM12 16.586l-1.371-1.371c.439-.126.892-.215 1.371-.215s.932.089 1.371.215zm-3.213-.385L11 18.414V21H7v-1c0-1.528.704-2.881 1.787-3.799zM13 18.414l2.213-2.213C16.296 17.119 17 18.472 17 20v1h-4zM9.184 51h5.631c-.414 1.161-1.514 2-2.816 2s-2.401-.839-2.815-2zm0-2c.414-1.161 1.514-2 2.816-2s2.402.839 2.816 2zM17 61h-4v-2.586l2.213-2.213C16.296 57.119 17 58.472 17 60zm-5-6c.479 0 .932.089 1.371.215L12 56.586l-1.371-1.371A4.937 4.937 0 0112 55zm-3.213 1.201L11 58.414V61H7v-1c0-1.528.704-2.881 1.787-3.799zM21 61h-2v-1a7.002 7.002 0 00-3.779-6.208C16.3 52.874 17 51.524 17 50c0-2.757-2.243-5-5-5s-5 2.243-5 5c0 1.524.7 2.874 1.779 3.792A7.002 7.002 0 005 60v1H3V43h18zM5 41V23h22v6h6v6h8v14h-6v6h-8v6h-4V41zm24 20v-4h8v-6h6v-6h16v16zM9 33h2v2H9zm4 0h2v2h-2zm4 0h2v2h-2zm28 22h2v2h-2zm4 0h2v2h-2zm4 0h2v2h-2z"/></symbol></svg>